<svg xmlns="http://www.w3.org/2000/svg" viewBox="0 0 50.33 44.27"><defs><style>.cls-1{fill:#f4f4f4;}</style></defs><title>자산 1</title><g id="레이어_2" data-name="레이어 2"><g id="레이어_1-2" data-name="레이어 1"><path class="cls-1" d="M0,.69A.69.69,0,0,1,.69,0h9.44C16.76,0,20,3.65,20,10.35V33.92c0,6.7-3.25,10.35-9.88,10.35H.69A.69.69,0,0,1,0,43.58Zm10,37.6c2.11,0,3.37-1.08,3.37-4.07V10.05C13.38,7.06,12.12,6,10,6H7.32a.69.69,0,0,0-.69.69V37.6a.69.69,0,0,0,.69.69Z"/><path class="cls-1" d="M23.54,0h8.17a.68.68,0,0,1,.68.59l4.14,31.77h.12L40.79.59A.68.68,0,0,1,41.47,0h8.17a.69.69,0,0,1,.69.69V43.58a.69.69,0,0,1-.69.69H44.76a.69.69,0,0,1-.69-.69V10.17h-.13L39.21,43.69a.69.69,0,0,1-.68.58H34.17a.69.69,0,0,1-.68-.58L28.75,10.17h-.12V43.58a.69.69,0,0,1-.69.69h-4.4a.69.69,0,0,1-.69-.69V.69A.69.69,0,0,1,23.54,0Z"/></g></g></svg>